<svg viewBox="0 0 512 512" xmlns="http://www.w3.org/2000/svg"><path style="fill:#c5c5c5" d="m51 480-14-3c-13-5-26-16-32-29-3-7-5-13-5-22s2-18 6-26l41-65A2654094 2654094 0 0 0 235 41c6-7 15-10 24-9 8 1 13 3 18 9l83 128a295509 295509 0 0 0 146 231c7 13 8 27 3 42a59 59 0 0 1-46 38H51zm409-49c2-1 4-6 4-8s-9-16-53-84l-53-83h-90l-17 23c-26 34-27 35-30 37-4 3-7 4-13 4s-10-1-15-5a669 669 0 0 1-42-54l-19 29a292486 292486 0 0 1-84 133c0 2 0 5 2 7l2 2h407l1-1zM223 236l17-21 9-6 41-1h38l-36-56-36-56-12 19a662378 662378 0 0 1-64 103l28 38 15-20z"/></svg>