<svg
   width="450"
   height="510"
   viewBox="19 77 458.91554 557.14286"
   fill="#519aba">
  <path
     fill-rule="oddeven"
     clip-rule="oddeven"
     d="m 366.06473,179.5678 q 16.41353,0 28.0924,11.58742 11.67884,11.58743 11.67884,27.87247 v 273.08748 q 0,16.28504 -11.67884,27.87248 -11.67887,11.58741 -28.0924,11.58741 H 179.2029 q -16.41355,0 -28.0924,-11.58741 -11.67886,-11.58744 -11.67886,-27.87248 V 219.02769 q 0,-16.28504 11.67886,-27.87247 11.67885,-11.58742 28.0924,-11.58742 z m 57.44736,228.61682 h 13.2571 q 5.05033,0 8.83807,3.4449 3.78774,3.44493 4.41902,8.45569 v 28.18564 q 0,5.01079 -3.15645,8.45569 -3.15645,3.44492 -8.20676,4.69762 h -15.15098 v -53.23954 h 13.2571 z m 0,-70.15092 h 13.2571 q 5.05033,0 8.83807,3.13173 3.78774,3.13175 4.41902,8.14251 v 28.18566 q 0,5.01078 -3.15645,8.76886 -3.15645,3.75808 -8.20676,4.38443 H 423.51209 V 338.0337 h 13.2571 z m 0,-70.77727 h 13.2571 q 5.05033,0 8.83807,3.44493 3.78774,3.4449 4.41902,8.45569 v 28.18564 q 0,5.01076 -3.15645,8.45568 -3.15645,3.44489 -8.20676,4.69759 h -15.15098 v -53.23953 h 13.2571 z M 330.0812,240.94984 H 215.18643 q -5.05031,0 -8.83806,3.44491 -3.78774,3.44492 -4.41904,7.82935 l -0.63127,28.81197 q 0,4.38445 3.47209,8.14251 3.4721,3.75811 8.5224,4.38446 l 116.78865,0.62634 q 5.05031,0 8.83805,-3.44491 3.78775,-3.44491 4.41904,-8.4557 l 0.63128,-28.18562 q 0,-5.63714 -4.10338,-9.39521 -4.10338,-3.7581 -9.78499,-3.7581 z"
     id="path1"
     style="stroke-width:0.628814" />
</svg>
