<?xml version="1.0" encoding="UTF-8" standalone="no"?>
<svg fill="currentColor" width="50" height="50" viewBox="0 0 50 50" version="1.1" xmlns="http://www.w3.org/2000/svg">
  <g>
    <path
      fill="currentColor"
      d="M 5.1851077,11 1.5,48.810514 h 11.08161 l 1.606001,-15.304256 2.966132,3.150877 h 5.579551 L 21.803369,48.810514 H 33.362943 L 37.41407,11 H 26.250966 L 24.090365,25.584056 H 15.033847 L 16.618287,11 Z"
    />
    <path
      fill="currentColor"
      d="M 45.63332,13.5 H 47.4 C 47.42831,6.3524349 42.02072,1.0114649 34.9,1 V 2.7666801 C 40.82523,2.7730601 45.626975,7.5747705 45.63332,13.5 Z m -3.066671,0 H 44.333 C 44.33,8.2685868 40.311112,4.0340227 34.9,4.067 v 1.7663505 c 4.231375,0.00677 7.659884,3.4352751 7.666649,7.6666495 z m -3.06667,0 H 41.267 C 41.263618,10.142141 38.617254,7.1363825 34.9,7.133 v 1.767021 c 2.539694,0.00212 4.597907,2.060389 4.600005,4.600005 z"
    />
  </g>
</svg>
