<?xml version="1.0" encoding="UTF-8" standalone="no"?>
<svg viewBox="0 0 380 380" xmlns="http://www.w3.org/2000/svg">
   <path
      d="m 185.6,188.8 c -14.6,14.6 -14.6,38.3 0,52.9 14.6,14.6 38.3,14.6 52.9,0 14.6,-14.6 14.6,-38.3 0,-52.9 -14.6,-14.6 -38.3,-14.6 -52.9,0 z m 39.6,39.6 c -7.2,7.2 -19,7.2 -26.2,0 -7.2,-7.2 -7.2,-19 0,-26.2 7.2,-7.2 19,-7.2 26.2,0 7.2,7.2 7.2,19 0,26.2 z M 237.9,4.9 215,27.8 c -4.5,4.5 -4.5,11.8 0,16.3 l 89.5,89.5 c 4.5,4.5 11.8,4.5 16.3,0 l 22.9,-22.9 c 4.5,-4.5 4.5,-11.8 0,-16.3 L 254.2,4.9 c -4.5,-4.5 -11.8,-4.5 -16.3,0 z M 77.4,297.6 c 4.1,-4.1 4.1,-10.7 0,-14.8 L 65.7,271.1 C 61.6,267 55,267 50.9,271.1 l -24,24 -6.6,-6.6 c -3.6,-3.6 -9.6,-3.6 -13.2,0 -3.6,3.6 -3.6,9.6 0,13.2 l 39.7,39.7 c 3.6,3.6 9.6,3.6 13.2,0 3.6,-3.6 3.6,-9.6 0,-13.2 l -6.6,-6.6 z m 121.2,-227 -50.9,50.9 c -4.5,4.5 -4.5,12 0,16.5 l 31.4,31.4 c 22.2,-16 53.4,-14 73.4,6 L 277.9,150 c 4.5,-4.5 4.5,-12 0,-16.5 L 215.1,70.7 c -4.6,-4.6 -12,-4.6 -16.5,-0.1 z m -32.7,112.1 -18.6,-18.6 c -4.3,-4.3 -11.5,-4.3 -15.8,0 L 66,229.6 c -4.3,4.3 -4.3,11.5 0,15.8 l 37.1,37.1 c 4.3,4.3 11.5,4.3 15.8,0 L 161,240.4 c -8.8,-18.5 -7.2,-40.7 4.9,-57.7 z"
   />
</svg>