<?xml version="1.0" encoding="UTF-8" standalone="no"?>
<!-- Created with Inkscape (http://www.inkscape.org/) -->

<svg
   width="50"
   height="50"
   viewBox="0 0 50 50"
   version="1.1"
   id="svg1"
   inkscape:version="1.4.3 (0d15f75, 2025-12-25)"
   sodipodi:docname="hermes-fprime.svg"
   xml:space="preserve"
   xmlns:inkscape="http://www.inkscape.org/namespaces/inkscape"
   xmlns:sodipodi="http://sodipodi.sourceforge.net/DTD/sodipodi-0.dtd"
   xmlns:xlink="http://www.w3.org/1999/xlink"
   xmlns="http://www.w3.org/2000/svg"
   xmlns:svg="http://www.w3.org/2000/svg"><sodipodi:namedview
     id="namedview1"
     pagecolor="#ffffff"
     bordercolor="#000000"
     borderopacity="0.25"
     inkscape:showpageshadow="2"
     inkscape:pageopacity="0.0"
     inkscape:pagecheckerboard="0"
     inkscape:deskcolor="#d1d1d1"
     inkscape:document-units="px"
     inkscape:zoom="10.937018"
     inkscape:cx="21.395229"
     inkscape:cy="30.53849"
     inkscape:window-width="1728"
     inkscape:window-height="975"
     inkscape:window-x="0"
     inkscape:window-y="38"
     inkscape:window-maximized="0"
     inkscape:current-layer="layer1" /><defs
     id="defs1"><style
       id="style1">.cls-1{clip-path:url(#clippath);}.cls-2,.cls-3,.cls-4,.cls-5,.cls-6,.cls-7{stroke-width:0px;}.cls-2,.cls-8{fill:none;}.cls-3{fill:url(#linear-gradient);}.cls-9{clip-path:url(#clippath-1);}.cls-10{clip-path:url(#clippath-4);}.cls-11{clip-path:url(#clippath-3);}.cls-12{clip-path:url(#clippath-2);}.cls-4{fill:url(#linear-gradient-4);}.cls-5{fill:url(#linear-gradient-2);}.cls-6{fill:url(#linear-gradient-3);}.cls-8{stroke:#cb7541;stroke-width:3.01px;}.cls-7{fill:#cb7541;}</style><clipPath
       id="clippath"><rect
         class="cls-2"
         width="667.65"
         height="595.35"
         id="rect1" /></clipPath><clipPath
       id="clippath-1"><path
         class="cls-2"
         d="m148.33,270.44c-38.96,0-72.16,13.73-99.59,41.16-27.44,27.44-41.16,60.51-41.16,99.22v172.8l56.22-25.27v-147.53c0-23.27,8.2-43.12,24.62-59.53,16.65-16.41,36.62-24.62,59.9-24.62h309.41v-56.23H148.33Z"
         id="path1-9" /></clipPath><linearGradient
       id="linear-gradient"
       x1="-616.26"
       y1="1005.1"
       x2="-611.22"
       y2="1005.1"
       gradientTransform="translate(54581.59 89431.89) scale(88.55 -88.55)"
       gradientUnits="userSpaceOnUse"><stop
         offset="0"
         stop-color="#18213c"
         id="stop1" /><stop
         offset=".06"
         stop-color="#18213c"
         id="stop2" /><stop
         offset=".29"
         stop-color="#3e3e3e"
         id="stop3" /><stop
         offset=".68"
         stop-color="#bb5c39"
         id="stop4" /><stop
         offset="1"
         stop-color="#e7933d"
         id="stop5" /></linearGradient><clipPath
       id="clippath-2"><rect
         class="cls-2"
         width="667.65"
         height="595.35"
         id="rect5" /></clipPath><linearGradient
       id="linear-gradient-2"
       x1="-616.26"
       y1="1005.08"
       x2="-611.22"
       y2="1005.08"
       gradientTransform="matrix(88.55,0,0,-88.55,54581.59,89431.9)"
       xlink:href="#linear-gradient" /><clipPath
       id="clippath-3"><rect
         class="cls-2"
         x="7.59"
         y="53.83"
         width="450.16"
         height="56.23"
         id="rect6" /></clipPath><linearGradient
       id="linear-gradient-3"
       x1="-617.7"
       y1="1006.06"
       x2="-612.67"
       y2="1006.06"
       gradientTransform="matrix(111.13,0,0,-111.13,68655.15,111885.33)"
       xlink:href="#linear-gradient" /><clipPath
       id="clippath-4"><rect
         class="cls-2"
         width="667.65"
         height="595.35"
         id="rect7" /></clipPath><linearGradient
       id="linear-gradient-4"
       x1="-617.7"
       y1="1006.06"
       x2="-612.67"
       y2="1006.06"
       gradientTransform="matrix(111.13,0,0,-111.13,68655.41,111885.74)"
       xlink:href="#linear-gradient" /><linearGradient
       inkscape:collect="always"
       xlink:href="#linear-gradient"
       id="linearGradient1"
       gradientUnits="userSpaceOnUse"
       gradientTransform="matrix(88.55,0,0,-88.55,54581.59,89431.89)"
       x1="-616.26"
       y1="1005.1"
       x2="-611.22"
       y2="1005.1" /></defs><g
     inkscape:label="Layer 1"
     inkscape:groupmode="layer"
     id="layer1"><path
       style="fill:#8100d1;stroke-width:0.345605;fill-opacity:1"
       d="m 34.733256,2.1666418 -1.41471,14.5154242 h 4.25422 l 0.616543,-5.875291 1.138695,1.209619 h 2.141985 l -0.356997,4.665672 h 4.43771 L 47.105926,2.1666418 H 42.82042 l -0.829453,5.598807 h -3.476789 l 0.608265,-5.598807 z"
       id="path2"
       sodipodi:nodetypes="cccccccccccccc"
       inkscape:label="H" /><g
       id="g1"
       transform="matrix(0.04833378,0,0,0.04833378,4.6283686,18.355141)"><polygon
         class="cls-7"
         points="597.04,120.03 545.04,120.03 595.59,7.59 655.19,7.59 "
         id="polygon7" /><g
         class="cls-1"
         clip-path="url(#clippath)"
         id="g8"><polygon
           class="cls-8"
           points="597.04,120.03 545.04,120.03 595.59,7.59 655.19,7.59 "
           id="polygon8" /></g><g
         class="cls-9"
         clip-path="url(#clippath-1)"
         id="g9"><rect
           class="cls-3"
           x="7.5900002"
           y="270.44"
           width="450.16"
           height="313.17999"
           id="rect8"
           style="fill:url(#linearGradient1)" /></g><g
         class="cls-12"
         clip-path="url(#clippath-2)"
         id="g10"><path
           class="cls-5"
           d="m 457.74,326.67 h -5.03 V 275.48 H 148.33 c -37.77,0.05 -69.41,13.13 -96.03,39.69 v 0 C 25.73,341.8 12.67,373.31 12.62,410.83 V 575.85 L 58.77,555.1 V 410.83 c -0.05,-24.46 8.8,-45.86 26.1,-63.09 h 0.01 c 0,0 0.01,-0.03 0.01,-0.03 17.46,-17.27 38.97,-26.12 63.43,-26.07 h 309.41 v 5.03 h -5.03 5.03 v 5.03 h -309.4 c -22.09,0.05 -40.52,7.62 -56.37,23.17 l 0.03,-0.03 c -15.54,15.6 -23.1,33.89 -23.15,55.97 V 561.59 L 2.55,591.39 V 410.8 C 2.5,370.9 16.86,336.27 45.18,308.03 v 0 c 28.24,-28.32 63,-42.69 103.15,-42.64 h 314.45 v 66.29 h -5.03 v -5.03 z"
           id="path9"
           style="fill:url(#linear-gradient-2)" /></g><g
         class="cls-11"
         clip-path="url(#clippath-3)"
         id="g11"><rect
           class="cls-6"
           x="7.5900002"
           y="53.830002"
           width="450.16"
           height="56.23"
           id="rect10"
           style="fill:url(#linear-gradient-3)" /></g><g
         class="cls-10"
         clip-path="url(#clippath-4)"
         id="g12"><polygon
           class="cls-4"
           points="12.62,53.83 7.59,53.83 7.59,48.8 462.77,48.8 462.77,115.09 2.55,115.09 2.55,48.8 7.59,48.8 7.59,53.83 12.62,53.83 12.62,105.02 452.71,105.02 452.71,58.86 7.59,58.86 7.59,53.83 "
           id="polygon11"
           style="fill:url(#linear-gradient-4)" /></g></g></g></svg>
